<mxfile host="65bd71144e">
    <diagram id="HIP3nbAZw_EuaXWnEj3U" name="Page-1">
        <mxGraphModel dx="630" dy="647" grid="1" gridSize="10" guides="1" tooltips="1" connect="1" arrows="1" fold="1" page="1" pageScale="1" pageWidth="850" pageHeight="1100" math="0" shadow="0">
            <root>
                <mxCell id="0"/>
                <mxCell id="1" parent="0"/>
                <mxCell id="7" value="http://ics2o.mths.ca" style="swimlane;whiteSpace=wrap;html=1;" parent="1" vertex="1">
                    <mxGeometry x="40" y="40" width="760" height="480" as="geometry"/>
                </mxCell>
                <mxCell id="8" value="Fahrenheit to Celsius Converter" style="text;html=1;align=center;verticalAlign=middle;resizable=0;points=[];autosize=1;strokeColor=none;fillColor=none;fontSize=20;" vertex="1" parent="7">
                    <mxGeometry x="210" y="40" width="310" height="40" as="geometry"/>
                </mxCell>
                <mxCell id="10" value="°C = (°F - 32) × 5/9" style="text;html=1;align=left;verticalAlign=middle;resizable=0;points=[];autosize=1;strokeColor=none;fillColor=none;fontSize=15;" vertex="1" parent="7">
                    <mxGeometry x="30" y="130" width="150" height="30" as="geometry"/>
                </mxCell>
                <mxCell id="9" value="Formula" style="text;html=1;align=center;verticalAlign=middle;resizable=0;points=[];autosize=1;strokeColor=none;fillColor=none;fontSize=20;" vertex="1" parent="7">
                    <mxGeometry x="15" y="83" width="100" height="40" as="geometry"/>
                </mxCell>
                <mxCell id="13" value="Please Enter the Following" style="text;html=1;align=center;verticalAlign=middle;resizable=0;points=[];autosize=1;strokeColor=none;fillColor=none;fontSize=16;" vertex="1" parent="7">
                    <mxGeometry x="10" y="168" width="210" height="30" as="geometry"/>
                </mxCell>
                <mxCell id="14" value="Fahrenheit" style="text;html=1;align=center;verticalAlign=middle;resizable=0;points=[];autosize=1;strokeColor=none;fillColor=none;fontSize=14;" vertex="1" parent="7">
                    <mxGeometry x="25" y="210" width="90" height="30" as="geometry"/>
                </mxCell>
                <mxCell id="15" value="Calculate" style="whiteSpace=wrap;html=1;" vertex="1" parent="7">
                    <mxGeometry x="25" y="260" width="90" height="30" as="geometry"/>
                </mxCell>
                <mxCell id="16" value="Celsius is:&amp;nbsp;&lt;span style=&quot;color: rgb(0, 0, 0); font-size: 15px; text-align: left;&quot;&gt;°&lt;/span&gt;0" style="text;html=1;align=center;verticalAlign=middle;resizable=0;points=[];autosize=1;strokeColor=none;fillColor=none;" vertex="1" parent="1">
                    <mxGeometry x="65" y="348" width="90" height="30" as="geometry"/>
                </mxCell>
            </root>
        </mxGraphModel>
    </diagram>
</mxfile>